<?xml version="1.0" standalone="no"?>
<!DOCTYPE svg PUBLIC "-//W3C//DTD SVG 20010904//EN"
 "http://www.w3.org/TR/2001/REC-SVG-20010904/DTD/svg10.dtd">
<svg version="1.0" xmlns="http://www.w3.org/2000/svg"
 width="1200.000000pt" height="1200.000000pt" viewBox="0 0 1200.000000 1200.000000"
 preserveAspectRatio="xMidYMid meet">
<metadata>
Created by potrace 1.14, written by Peter Selinger 2001-2017
</metadata>
<g transform="translate(0.000000,1200.000000) scale(0.100000,-0.100000)"
fill="#000000" stroke="none">
<path d="M2 6013 l3 -5987 2063 0 c1135 -1 2065 2 2067 5 2 3 -310 317 -694
697 l-698 692 0 2472 0 2473 456 0 c251 0 488 3 526 7 131 15 263 64 376 140
95 64 126 95 287 291 81 99 194 237 252 307 58 70 139 169 180 219 48 59 76
87 81 79 3 -7 58 -143 122 -303 63 -159 201 -505 306 -768 105 -263 191 -482
191 -486 0 -8 -39 -89 -260 -546 -40 -82 -103 -213 -140 -290 -156 -324 -206
-428 -280 -580 -43 -88 -111 -227 -150 -310 -200 -415 -334 -692 -440 -910
-88 -182 -144 -296 -284 -587 -62 -130 -108 -226 -296 -613 -51 -104 -108
-224 -127 -265 -20 -41 -37 -77 -38 -80 -5 -8 865 -4 904 4 132 27 249 90 338
184 55 58 64 74 251 462 41 85 106 220 145 300 38 80 98 204 132 275 35 72 95
198 135 280 40 83 104 215 142 295 39 80 104 215 145 300 41 85 92 191 113
235 21 44 92 192 159 329 66 136 121 249 121 251 0 1 50 105 111 231 61 126
136 281 166 344 64 135 117 240 120 237 1 -1 4 -25 7 -52 11 -97 16 -141 21
-190 3 -27 7 -68 9 -90 3 -22 7 -69 11 -105 3 -36 7 -76 10 -90 2 -14 7 -56
10 -93 4 -37 8 -76 10 -85 1 -9 6 -48 9 -87 3 -38 8 -87 11 -107 3 -21 7 -61
10 -90 2 -29 6 -69 9 -88 3 -19 8 -64 11 -100 3 -36 7 -81 9 -100 2 -19 7 -62
11 -95 3 -33 8 -73 10 -90 2 -16 7 -57 10 -90 3 -33 8 -78 10 -100 3 -22 7
-60 10 -85 2 -25 7 -70 10 -100 3 -30 7 -71 9 -91 17 -177 152 -329 330 -369
47 -10 3153 -16 3164 -6 4 5 -11 48 -43 121 -7 17 -18 46 -25 65 -7 19 -18 49
-25 65 -8 17 -32 80 -55 140 -76 202 -163 324 -296 416 -71 49 -212 103 -279
108 -11 1 -432 3 -937 4 -504 1 -919 5 -922 8 -4 3 -8 32 -11 65 -3 32 -7 82
-10 109 -5 53 -12 125 -20 215 -7 78 -15 158 -20 205 -6 60 -15 153 -20 218
-2 32 -7 77 -9 100 -3 23 -8 74 -11 112 -3 39 -8 88 -10 110 -3 22 -7 65 -10
95 -2 30 -7 80 -10 110 -3 30 -7 82 -10 115 -3 33 -8 80 -10 105 -3 25 -7 70
-10 100 -4 51 -6 77 -21 230 -2 30 -7 71 -9 90 -2 19 -7 73 -10 120 -6 80 -35
172 -110 345 -41 95 -585 1457 -585 1464 0 5 190 8 446 8 l446 -2 42 -80 c23
-44 91 -174 150 -290 104 -202 180 -349 309 -595 32 -63 75 -135 93 -159 70
-91 171 -140 296 -145 232 -8 421 186 406 418 -6 85 -10 94 -233 511 -43 81
-86 163 -210 400 -37 72 -82 157 -100 190 -18 33 -54 101 -80 150 -71 133 -83
153 -146 231 -121 149 -314 261 -509 294 -58 10 -324 13 -1170 13 -980 0
-1236 -3 -1259 -18 -4 -2 -18 -6 -32 -8 -128 -24 -330 -118 -443 -207 -77 -61
-201 -207 -607 -715 -254 -319 -469 -586 -476 -593 -7 -8 -17 -22 -23 -32 -9
-16 -35 -17 -437 -16 l-428 1 -1 1892 -1 1891 21 4 c17 2 6454 2 6479 -1 4 -1
7 -1542 7 -3426 l0 -3425 108 -1 c135 -2 160 -4 251 -29 231 -64 411 -209 533
-430 14 -25 49 -109 77 -185 29 -77 57 -149 61 -160 19 -42 200 -527 200 -535
0 -5 -271 -8 -602 -9 -332 0 -609 0 -615 0 -10 -1 -13 -155 -13 -734 l0 -734
697 -696 696 -697 351 0 c680 -1 990 0 993 3 2 3 4 6311 3 11595 l0 392 -5995
0 -5995 0 2 -5987z"/>
<path d="M4820 10623 c-169 -18 -295 -61 -420 -144 -393 -261 -495 -795 -227
-1189 105 -153 319 -303 480 -335 10 -3 26 -6 35 -9 43 -13 95 -18 193 -18
377 2 710 260 811 629 28 105 30 315 4 418 -76 296 -302 531 -592 615 -81 24
-219 39 -284 33z"/>
<path d="M3662 1410 c-33 -5 -25 -13 667 -699 l700 -694 645 -1 c356 0 646 1
646 4 0 13 -1140 1140 -1185 1172 -117 83 -329 178 -435 194 -19 3 -52 9 -74
14 -21 5 -122 9 -225 9 -102 1 -303 3 -446 4 -143 1 -275 0 -293 -3z"/>
</g>
</svg>
